<svg width="163" height="40" viewBox="0 0 163 40" fill="none" xmlns="http://www.w3.org/2000/svg">
<rect width="163" height="40" rx="20" fill="#0D47A1"/>
<path d="M20.228 25.168C19.5093 25.168 18.8793 25.042 18.338 24.79C17.7967 24.538 17.372 24.1787 17.064 23.712C16.7653 23.2453 16.6113 22.69 16.602 22.046H18.17C18.1793 22.5687 18.3613 23.012 18.716 23.376C19.0707 23.74 19.57 23.922 20.214 23.922C20.7833 23.922 21.2267 23.7867 21.544 23.516C21.8707 23.236 22.034 22.8813 22.034 22.452C22.034 22.1067 21.9547 21.8267 21.796 21.612C21.6467 21.3973 21.4367 21.22 21.166 21.08C20.9047 20.94 20.6013 20.814 20.256 20.702C19.9107 20.59 19.5467 20.4687 19.164 20.338C18.408 20.086 17.8387 19.7593 17.456 19.358C17.0827 18.9567 16.896 18.4293 16.896 17.776C16.8867 17.2253 17.0127 16.7447 17.274 16.334C17.5447 15.9233 17.918 15.606 18.394 15.382C18.8793 15.1487 19.444 15.032 20.088 15.032C20.7227 15.032 21.278 15.1487 21.754 15.382C22.2393 15.6153 22.6173 15.942 22.888 16.362C23.1587 16.7727 23.2987 17.2533 23.308 17.804H21.74C21.74 17.552 21.6747 17.314 21.544 17.09C21.4133 16.8567 21.222 16.6653 20.97 16.516C20.718 16.3667 20.41 16.292 20.046 16.292C19.5793 16.2827 19.192 16.3993 18.884 16.642C18.5853 16.8847 18.436 17.2207 18.436 17.65C18.436 18.0327 18.548 18.3267 18.772 18.532C18.996 18.7373 19.304 18.91 19.696 19.05C20.088 19.1807 20.536 19.3347 21.04 19.512C21.5253 19.6707 21.9593 19.862 22.342 20.086C22.7247 20.31 23.028 20.604 23.252 20.968C23.4853 21.332 23.602 21.794 23.602 22.354C23.602 22.8487 23.476 23.3107 23.224 23.74C22.972 24.16 22.594 24.5053 22.09 24.776C21.586 25.0373 20.9653 25.168 20.228 25.168ZM25.1685 25V14.92H26.6525V19.176C26.8858 18.7747 27.2078 18.462 27.6185 18.238C28.0385 18.0047 28.5005 17.888 29.0045 17.888C29.8351 17.888 30.4885 18.1493 30.9645 18.672C31.4405 19.1947 31.6785 19.974 31.6785 21.01V25H30.2085V21.164C30.2085 19.82 29.6718 19.148 28.5985 19.148C28.0385 19.148 27.5718 19.344 27.1985 19.736C26.8345 20.128 26.6525 20.688 26.6525 21.416V25H25.1685ZM36.6743 25.168C36.0116 25.168 35.4143 25.0187 34.8823 24.72C34.3596 24.412 33.9443 23.9873 33.6363 23.446C33.3283 22.8953 33.1743 22.256 33.1743 21.528C33.1743 20.8 33.3283 20.1653 33.6363 19.624C33.9536 19.0733 34.3783 18.6487 34.9103 18.35C35.4423 18.042 36.0349 17.888 36.6883 17.888C37.3509 17.888 37.9436 18.042 38.4663 18.35C38.9983 18.6487 39.4183 19.0733 39.7263 19.624C40.0436 20.1653 40.2023 20.8 40.2023 21.528C40.2023 22.256 40.0436 22.8953 39.7263 23.446C39.4183 23.9873 38.9983 24.412 38.4663 24.72C37.9343 25.0187 37.3369 25.168 36.6743 25.168ZM36.6743 23.894C37.0289 23.894 37.3556 23.8053 37.6543 23.628C37.9623 23.4507 38.2096 23.1893 38.3963 22.844C38.5829 22.4893 38.6763 22.0507 38.6763 21.528C38.6763 21.0053 38.5829 20.5713 38.3963 20.226C38.2189 19.8713 37.9763 19.6053 37.6683 19.428C37.3696 19.2507 37.0429 19.162 36.6883 19.162C36.3336 19.162 36.0023 19.2507 35.6943 19.428C35.3956 19.6053 35.1529 19.8713 34.9663 20.226C34.7796 20.5713 34.6863 21.0053 34.6863 21.528C34.6863 22.0507 34.7796 22.4893 34.9663 22.844C35.1529 23.1893 35.3956 23.4507 35.6943 23.628C35.9929 23.8053 36.3196 23.894 36.6743 23.894ZM42.9334 25L40.8894 18.056H42.3734L43.7174 23.292L45.2294 18.056H46.8814L48.3934 23.292L49.7374 18.056H51.2214L49.1774 25H47.6514L46.0554 19.54L44.4594 25H42.9334ZM56.0272 25V15.2H59.4572C60.2225 15.2 60.8572 15.3307 61.3612 15.592C61.8652 15.844 62.2385 16.194 62.4812 16.642C62.7332 17.0807 62.8592 17.58 62.8592 18.14C62.8592 18.672 62.7379 19.162 62.4952 19.61C62.2619 20.0487 61.8932 20.3987 61.3892 20.66C60.8852 20.9213 60.2412 21.052 59.4572 21.052H57.5112V25H56.0272ZM57.5112 19.834H59.3872C60.0872 19.834 60.5865 19.6847 60.8852 19.386C61.1932 19.078 61.3472 18.6627 61.3472 18.14C61.3472 17.5987 61.1932 17.1787 60.8852 16.88C60.5865 16.572 60.0872 16.418 59.3872 16.418H57.5112V19.834ZM68.848 25.168C67.8774 25.168 67.028 24.9533 66.3 24.524C65.572 24.0947 65.0027 23.502 64.592 22.746C64.1814 21.9807 63.976 21.0987 63.976 20.1C63.976 19.1013 64.1814 18.224 64.592 17.468C65.0027 16.7027 65.572 16.1053 66.3 15.676C67.028 15.2467 67.8774 15.032 68.848 15.032C69.8187 15.032 70.668 15.2467 71.396 15.676C72.124 16.1053 72.6887 16.7027 73.09 17.468C73.5007 18.224 73.706 19.1013 73.706 20.1C73.706 21.0987 73.5007 21.9807 73.09 22.746C72.6887 23.502 72.124 24.0947 71.396 24.524C70.668 24.9533 69.8187 25.168 68.848 25.168ZM68.848 23.838C69.52 23.838 70.1034 23.6887 70.598 23.39C71.102 23.0913 71.494 22.662 71.774 22.102C72.054 21.542 72.194 20.8747 72.194 20.1C72.194 19.3253 72.054 18.658 71.774 18.098C71.494 17.538 71.102 17.1087 70.598 16.81C70.1034 16.5113 69.52 16.362 68.848 16.362C68.176 16.362 67.588 16.5113 67.084 16.81C66.58 17.1087 66.188 17.538 65.908 18.098C65.6374 18.658 65.502 19.3253 65.502 20.1C65.502 20.8747 65.6374 21.542 65.908 22.102C66.188 22.662 66.58 23.0913 67.084 23.39C67.588 23.6887 68.176 23.838 68.848 23.838ZM78.5932 25.168C77.8746 25.168 77.2446 25.042 76.7032 24.79C76.1619 24.538 75.7372 24.1787 75.4292 23.712C75.1306 23.2453 74.9766 22.69 74.9672 22.046H76.5352C76.5446 22.5687 76.7266 23.012 77.0812 23.376C77.4359 23.74 77.9352 23.922 78.5792 23.922C79.1486 23.922 79.5919 23.7867 79.9092 23.516C80.2359 23.236 80.3992 22.8813 80.3992 22.452C80.3992 22.1067 80.3199 21.8267 80.1612 21.612C80.0119 21.3973 79.8019 21.22 79.5312 21.08C79.2699 20.94 78.9666 20.814 78.6212 20.702C78.2759 20.59 77.9119 20.4687 77.5292 20.338C76.7732 20.086 76.2039 19.7593 75.8212 19.358C75.4479 18.9567 75.2612 18.4293 75.2612 17.776C75.2519 17.2253 75.3779 16.7447 75.6392 16.334C75.9099 15.9233 76.2832 15.606 76.7592 15.382C77.2446 15.1487 77.8092 15.032 78.4532 15.032C79.0879 15.032 79.6432 15.1487 80.1192 15.382C80.6046 15.6153 80.9826 15.942 81.2532 16.362C81.5239 16.7727 81.6639 17.2533 81.6732 17.804H80.1052C80.1052 17.552 80.0399 17.314 79.9092 17.09C79.7786 16.8567 79.5872 16.6653 79.3352 16.516C79.0832 16.3667 78.7752 16.292 78.4112 16.292C77.9446 16.2827 77.5572 16.3993 77.2492 16.642C76.9506 16.8847 76.8012 17.2207 76.8012 17.65C76.8012 18.0327 76.9132 18.3267 77.1372 18.532C77.3612 18.7373 77.6692 18.91 78.0612 19.05C78.4532 19.1807 78.9012 19.3347 79.4052 19.512C79.8906 19.6707 80.3246 19.862 80.7072 20.086C81.0899 20.31 81.3932 20.604 81.6172 20.968C81.8506 21.332 81.9672 21.794 81.9672 22.354C81.9672 22.8487 81.8412 23.3107 81.5892 23.74C81.3372 24.16 80.9592 24.5053 80.4552 24.776C79.9512 25.0373 79.3306 25.168 78.5932 25.168ZM85.708 25V16.404H82.81V15.2H90.076V16.404H87.192V25H85.708ZM91.4647 25V15.2H93.2147L96.5327 21.724L99.8367 15.2H101.587V25H100.103V17.762L97.1067 23.6H95.9587L92.9487 17.776V25H91.4647ZM102.948 25L106.56 15.2H108.184L111.768 25H110.2L109.36 22.606H105.356L104.516 25H102.948ZM105.776 21.43H108.94L107.358 16.964L105.776 21.43ZM113.135 25V15.2H114.619L119.533 22.578V15.2H121.017V25H119.533L114.619 17.622V25H113.135Z" fill="white"/>
<path d="M142.042 20.7425L137.362 25.6924C136.974 26.1025 136.345 26.1025 135.957 25.6924C135.57 25.2824 135.57 24.6175 135.957 24.2075L139.936 20L135.957 15.7925C135.57 15.3825 135.57 14.7176 135.957 14.3076C136.345 13.8975 136.974 13.8975 137.362 14.3076L142.042 19.2575C142.43 19.6676 142.43 20.3324 142.042 20.7425Z" fill="white"/>
</svg>
