<?xml version="1.0" encoding="utf-8"?>
<!-- Generator: Adobe Illustrator 17.0.0, SVG Export Plug-In . SVG Version: 6.00 Build 0)  -->
<!DOCTYPE svg PUBLIC "-//W3C//DTD SVG 1.1//EN" "http://www.w3.org/Graphics/SVG/1.1/DTD/svg11.dtd">
<svg version="1.1" id="Layer_1" xmlns="http://www.w3.org/2000/svg" xmlns:xlink="http://www.w3.org/1999/xlink" x="0px" y="0px"
	 width="156px" height="93px" viewBox="0 0 156 93" enable-background="new 0 0 156 93" xml:space="preserve">
<g>
	<g>
		<path opacity="0.85" fill="#274A9C" enable-background="new    " d="M3.037,64.74L3.037,64.74
			c-0.006-0.015-0.012-0.029-0.018-0.044C3.025,64.711,3.031,64.726,3.037,64.74z"/>
		<path fill="#648ACC" d="M53.097,2.541L53.097,2.541L20.458,16.803C8.691,21.944,1.359,33.581,0.236,46.343
			c0.005-0.033,0.008-0.068,0.013-0.101l11.289,4.708l11.782,4.927l12.364-5.403C53.047,42.887,60.843,21.427,53.097,2.541z"/>
		<path fill="#B9CEED" d="M3.614,66.124c2.374,5.579,6.522,10.038,12.37,12.472l22.28,9.317l0,0
			c4.802-12.234-0.914-26.169-12.766-31.125l-2.179-0.911L3.037,64.74C3.23,65.215,3.424,65.678,3.614,66.124z"/>
		<path fill="#3155A4" d="M11.538,50.95L0.249,46.243c-0.005,0.033-0.009,0.067-0.013,0.101c-0.259,1.884-0.235,4.171-0.033,6.483
			c0.111,1.432,0.301,2.867,0.573,4.297c0.42,2.729,1.322,5.302,2.244,7.573c0.006,0.015,0.012,0.029,0.018,0.044l20.283-8.863
			L11.538,50.95z"/>
	</g>
	<g>
		<path fill="#FFFFFF" d="M87.96,47.482c-3.372-1.98-7.219-2.985-11.433-2.985s-8.07,1.004-11.46,2.984
			c-3.399,1.982-6.098,4.754-8.021,8.237c-1.92,3.477-2.894,7.433-2.894,11.759c0,4.327,0.973,8.284,2.894,11.76
			c1.925,3.484,4.623,6.256,8.021,8.238c3.392,1.98,7.247,2.984,11.46,2.984c4.212,0,8.059-1.005,11.433-2.985
			c3.378-1.982,6.074-4.753,8.016-8.233c1.94-3.479,2.924-7.437,2.924-11.764c0-4.326-0.984-8.284-2.924-11.762
			C94.036,52.235,91.339,49.465,87.96,47.482z M87.867,67.477c0,2.468-0.501,4.692-1.489,6.612
			c-0.979,1.904-2.343,3.406-4.055,4.467c-1.715,1.06-3.665,1.598-5.796,1.598c-2.134,0-4.084-0.538-5.797-1.598
			c-1.712-1.06-3.076-2.562-4.055-4.467c-0.988-1.921-1.489-4.146-1.489-6.612s0.501-4.689,1.489-6.61
			c0.979-1.905,2.343-3.407,4.055-4.467c1.711-1.06,3.662-1.598,5.797-1.598c2.133,0,4.084,0.538,5.796,1.598
			s3.076,2.563,4.056,4.467C87.366,62.786,87.867,65.009,87.867,67.477z"/>
		<polygon fill="#FFFFFF" points="117.562,63.181 107.625,45.227 95.862,45.227 111.709,73.816 111.709,89.729 122.63,89.729 
			122.63,73.938 138.532,45.227 127.498,45.227 		"/>
		<polygon fill="#FFFFFF" points="153.991,74.942 155.846,45.227 143.458,45.227 145.313,74.942 		"/>
		<path fill="#FFFFFF" d="M154.168,79.184c-1.182-1.214-2.701-1.83-4.516-1.83c-1.814,0-3.333,0.616-4.515,1.83
			c-1.185,1.215-1.786,2.743-1.786,4.54c0,1.794,0.609,3.34,1.807,4.594c1.202,1.258,2.713,1.896,4.493,1.896
			c1.779,0,3.291-0.638,4.494-1.896c1.199-1.254,1.807-2.8,1.807-4.594C155.953,81.927,155.352,80.399,154.168,79.184z"/>
	</g>
</g>
</svg>
