<?xml version="1.0" encoding="UTF-8"?>
<svg width="540px" height="260px" viewBox="0 0 540 260" version="1.1" xmlns="http://www.w3.org/2000/svg" xmlns:xlink="http://www.w3.org/1999/xlink">
    <!-- Generator: Sketch 54.1 (76490) - https://sketchapp.com -->
    <title>logo</title>
    <desc>Created with Sketch.</desc>
    <defs>
        <polygon id="path-1" points="0 0.222 119.943 0.222 119.943 110.46 0 110.46"></polygon>
    </defs>
    <g id="Page-1" stroke="none" stroke-width="1" fill="none" fill-rule="evenodd">
        <g id="logo">
            <g transform="translate(210.000000, 38.000000)">
                <g id="Group" transform="translate(0.000000, 0.030000)">
                    <g id="Clipped">
                        <g id="Path-Clipped">
                            <mask id="mask-2" fill="white">
                                <use xlink:href="#path-1"></use>
                            </mask>
                            <g id="path-1"></g>
                            <path d="M111.954,67.656 C112.383,66.252 112.755,64.854 113.07,63.465 C117.552,45.747 122.631,15.036 118.29,6.555 C113.4,-3 98.511,-0.825 95.664,7.011 C94.713,9.621 94.449,13.092 94.449,17.073 C89.16,13.992 82.845,11.745 75.525,10.56 C50.829,6.564 20.01,13.56 5.385,39.978 C-9.294,66.489 8.721,87.498 27.243,94.869 C31.218,96.45 36.813,98.676 42.792,100.197 C46.296,101.088 42.9,103.026 42.9,103.026 C39.654,106.35 37.266,108.678 44.028,110.022 C50.793,111.366 89.58,111.603 106.842,79.752 C108.638297,76.4521849 110.153647,73.0070228 111.372,69.453 L111.423,69.483 C111.597,68.904 111.774,68.292 111.954,67.653" id="Path" fill="#1480DE" fill-rule="nonzero" mask="url(#mask-2)"></path>
                        </g>
                    </g>
                </g>
                <path d="M38.067,55.524 C37.866,60.225 33.534,69.354 26.139,68.142 C18.741,66.93 17.22,58.161 18.798,52.722 C20.376,47.283 24.828,42.537 29.925,43.272 C36.141,44.169 38.265,50.826 38.067,55.524 M32.607,31.458 C21.837,30.294 12.729,40.158 9.696,51.246 C6.663,62.334 10.332,79.947 25.965,81.933 C41.589,83.913 50.217,65.202 50.391,55.695 C50.565,46.185 45.735,32.874 32.604,31.455 M84.624,21.837 C81.1273542,20.9705996 77.5901465,23.1017874 76.722,26.598 C72.831,42.297 70.08,47.187 67.77,49.068 C65.919,46.752 63.876,38.916 63.432,32.016 C63.3302665,30.2862163 62.5421805,28.668624 61.2427175,27.5223704 C59.9432546,26.3761167 58.2399567,25.7960644 56.511,25.911 C52.9149651,26.1375021 50.1831992,29.235921 50.409,32.832 C50.748,38.292 53.829,51.51 61.653,58.134 C61.053,62.577 59.316,72.645 55.032,82.719 C53.6625262,86.0262992 55.2132718,89.8194295 58.5074929,91.2200701 C61.801714,92.6207107 65.6093175,91.1058493 67.041,87.825 C72.39,75.249 73.209,63.423 73.281,58.287 C73.407,58.221 73.551,58.206 73.656,58.107 C81.567,50.367 86.856,39.951 89.388,29.739 C90.2524476,26.2416961 88.1203661,22.7052333 84.624,21.837 M97.434,79.05 C96.7606727,79.0931412 96.0848149,79.0262647 95.433,78.852 C92.481,78.039 92.313,74.181 93.243,70.698 C100.968,41.724 101.025,14.595 100.989,14.379 C100.546302,10.8729434 102.973944,7.65119543 106.466181,7.11017905 C109.958417,6.56916266 113.247092,8.90534028 113.886,12.381 C114.042,13.383 115.812,38.46 102.6,73.44 C101.571,76.161 100.191,78.897 97.434,79.05 M93.72,89.88 C92.52,91.671 88.581,94.179 85.845,91.887 C83.109,89.592 84.567,85.785 86.505,84.042 C88.44,82.302 91.386,81.537 93.297,83.079 C95.625,84.957 94.917,88.089 93.717,89.877" id="Shape" fill="#FEFEFE" fill-rule="nonzero"></path>
            </g>
            <text id="OY!-API" fill="#EAEAEA" font-family="Roboto-Regular, Roboto" font-size="54" font-weight="normal">
                <tspan x="173" y="220">OY! API </tspan>
            </text>
            <rect id="Rectangle" stroke="#979797" x="0.5" y="0.5" width="539" height="259"></rect>
        </g>
    </g>
</svg>