<svg width="116" height="38" viewBox="0 0 116 38" fill="none" xmlns="http://www.w3.org/2000/svg">
<path d="M24.8064 0L9.47057 6.16022C3.95255 8.38839 0.584402 13.3035 0.0827637 18.6773C0.0827637 18.6773 0.0827637 18.6773 0.0827637 18.6117L5.45746 20.5122L11.0471 22.4783L16.8518 20.119C25.0214 16.9078 28.6045 7.86411 24.8064 0Z" fill="#618ACC"/>
<path d="M1.8027 26.9347C2.9493 29.2284 4.95585 31.1289 7.75069 32.1119L18.3568 35.9129C20.5783 30.7357 17.7835 24.9687 12.1221 22.9372L11.1188 22.5439L1.58771 26.3449C1.65937 26.5415 1.73103 26.7381 1.8027 26.9347Z" fill="#B7CEEC"/>
<path d="M5.45744 20.5123L0.0827488 18.6118C0.0827488 18.6118 0.0827488 18.6118 0.0827488 18.6774C-0.0605764 19.4638 0.0110862 20.4468 0.0827488 21.3643C0.154411 21.9541 0.226074 22.5439 0.369399 23.1337C0.584387 24.2478 1.01436 25.3618 1.44434 26.2793L10.9755 22.4783L5.45744 20.5123Z" fill="#2E55A5"/>
<path fill-rule="evenodd" clip-rule="evenodd" d="M36.6992 16.9355C38.6437 16.9355 40.4492 17.3309 41.977 18.1215C43.5742 18.9121 44.8242 20.0981 45.727 21.5476C46.6298 22.9971 47.1159 24.6443 47.1159 26.4891C47.1853 28.268 46.6992 29.9811 45.8659 31.4306C45.0326 32.8801 43.7826 34.0661 42.2548 34.9226C40.727 35.7791 38.9909 36.2403 37.0464 36.2403C35.102 36.2403 33.3659 35.845 31.7687 35.0544C30.1714 34.2637 28.9214 33.0778 28.0187 31.6283C27.1159 30.1788 26.6298 28.5316 26.6298 26.6868C26.6298 24.9078 27.0464 23.1948 27.8798 21.7453C28.7131 20.2958 29.9631 19.1098 31.4909 18.2533C33.0187 17.3968 34.7548 16.9355 36.6992 16.9355ZM41.4214 29.3223C41.8381 28.5316 42.0464 27.6092 42.0464 26.555C42.0464 25.5008 41.8381 24.5784 41.352 23.7878C40.9353 22.9972 40.2408 22.4042 39.477 21.943C38.7131 21.4818 37.8103 21.2841 36.8381 21.2841C35.8658 21.2841 34.9631 21.5476 34.1992 22.0089C33.4353 22.4701 32.8103 23.1289 32.3936 23.9196C31.9769 24.7102 31.7686 25.6326 31.7686 26.6868C31.7686 27.741 31.9769 28.6634 32.463 29.454C32.8797 30.2447 33.5742 30.8377 34.3381 31.2989C35.1019 31.7601 36.0047 31.9577 36.9769 31.9577C37.9492 31.9577 38.852 31.6942 39.6158 31.233C40.3797 30.7718 41.0047 30.1129 41.4214 29.3223Z" fill="#1E2B37"/>
<path d="M55.6575 24.5125L51.0047 17.0673L45.5881 17.1332L53.0186 29.0587L53.0881 35.7791L58.1575 35.7132L58.0186 29.0587L65.102 16.8696L60.102 16.9355L55.6575 24.5125Z" fill="#1E2B37"/>
<path d="M72.3936 29.2562L73.0881 16.7378L67.3936 16.8037L68.4353 29.3221L72.3936 29.2562Z" fill="#1E2B37"/>
<path d="M72.5326 31.0353C71.977 30.5082 71.2826 30.3105 70.4492 30.3105C69.6159 30.3105 68.9215 30.5741 68.3659 31.1012C67.8103 31.6283 67.5326 32.2871 67.602 33.0119C67.602 33.7366 67.8798 34.3955 68.4353 34.9226C68.9909 35.4497 69.6853 35.7132 70.5187 35.7132C71.352 35.7132 72.0465 35.4497 72.5326 34.8567C73.0881 34.3296 73.3659 33.6708 73.3659 32.8801C73.3659 32.2213 73.0881 31.5624 72.5326 31.0353Z" fill="#1E2B37"/>
<rect x="83" y="15" width="33" height="23" rx="4" fill="#CFDAEC"/>
<path d="M87 32.6L91.644 20H93.246L97.872 32.6H96.27L95.118 29.36H89.754L88.584 32.6H87ZM90.204 28.136H94.668L92.436 21.908L90.204 28.136Z" fill="#0D47A1"/>
<path d="M99.7451 32.6V20H103.885C104.869 20 105.679 20.162 106.315 20.486C106.951 20.81 107.419 21.248 107.719 21.8C108.031 22.352 108.187 22.976 108.187 23.672C108.187 24.356 108.037 24.974 107.737 25.526C107.437 26.078 106.969 26.522 106.333 26.858C105.697 27.182 104.881 27.344 103.885 27.344H101.257V32.6H99.7451ZM101.257 26.066H103.849C104.857 26.066 105.571 25.856 105.991 25.436C106.423 25.004 106.639 24.416 106.639 23.672C106.639 22.916 106.423 22.328 105.991 21.908C105.571 21.476 104.857 21.26 103.849 21.26H101.257V26.066Z" fill="#0D47A1"/>
<path d="M110.169 32.6V20H111.681V32.6H110.169Z" fill="#0D47A1"/>
</svg>
