<?xml version="1.0" encoding="utf-8"?>
<!-- Generator: Adobe Illustrator 17.0.0, SVG Export Plug-In . SVG Version: 6.00 Build 0)  -->
<!DOCTYPE svg PUBLIC "-//W3C//DTD SVG 1.1//EN" "http://www.w3.org/Graphics/SVG/1.1/DTD/svg11.dtd">
<svg version="1.1" id="Layer_1" xmlns="http://www.w3.org/2000/svg" xmlns:xlink="http://www.w3.org/1999/xlink" x="0px" y="0px"
	 width="156px" height="150.244px" viewBox="0 0 156 150.244" enable-background="new 0 0 156 150.244" xml:space="preserve">
<g>
	<g>
		<path opacity="0.85" fill="#274A9C" d="M3.037,64.74L3.037,64.74c-0.006-0.015-0.012-0.029-0.018-0.044
			C3.025,64.711,3.031,64.726,3.037,64.74z"/>
		<path fill="#648ACC" d="M53.097,2.541L53.097,2.541L20.458,16.803C8.691,21.944,1.359,33.581,0.236,46.343
			c0.005-0.033,0.008-0.068,0.013-0.101l11.289,4.708l11.782,4.927l12.364-5.403C53.047,42.887,60.843,21.427,53.097,2.541z"/>
		<path fill="#B9CEED" d="M3.614,66.124c2.374,5.579,6.522,10.038,12.37,12.472l22.28,9.317l0,0
			c4.802-12.234-0.914-26.169-12.766-31.125l-2.179-0.911L3.037,64.74C3.23,65.215,3.424,65.678,3.614,66.124z"/>
		<path fill="#3155A4" d="M11.538,50.95L0.249,46.243c-0.005,0.033-0.009,0.067-0.013,0.101c-0.259,1.884-0.235,4.171-0.033,6.483
			c0.111,1.432,0.301,2.867,0.573,4.297c0.42,2.729,1.322,5.302,2.244,7.573c0.006,0.015,0.012,0.029,0.018,0.044l20.283-8.863
			L11.538,50.95z"/>
	</g>
	<g>
		<path fill="#0E2634" d="M87.96,47.482c-3.372-1.98-7.219-2.985-11.433-2.985c-4.214,0-8.07,1.004-11.46,2.984
			c-3.399,1.982-6.098,4.754-8.021,8.237c-1.92,3.477-2.894,7.433-2.894,11.759c0,4.327,0.973,8.284,2.894,11.76
			c1.925,3.484,4.623,6.256,8.021,8.238c3.392,1.98,7.247,2.984,11.46,2.984c4.212,0,8.059-1.005,11.433-2.985
			c3.378-1.982,6.074-4.753,8.016-8.233c1.94-3.479,2.924-7.437,2.924-11.764c0-4.326-0.984-8.284-2.924-11.762
			C94.036,52.235,91.339,49.465,87.96,47.482z M87.867,67.477c0,2.468-0.501,4.692-1.489,6.612
			c-0.979,1.904-2.343,3.406-4.055,4.467c-1.715,1.06-3.665,1.598-5.796,1.598c-2.134,0-4.084-0.538-5.797-1.598
			c-1.712-1.06-3.076-2.562-4.055-4.467c-0.988-1.921-1.489-4.146-1.489-6.612s0.501-4.689,1.489-6.61
			c0.979-1.905,2.343-3.407,4.055-4.467c1.711-1.06,3.662-1.598,5.797-1.598c2.133,0,4.084,0.538,5.796,1.598
			c1.712,1.06,3.076,2.563,4.056,4.467C87.366,62.786,87.867,65.009,87.867,67.477z"/>
		<polygon fill="#0E2634" points="117.562,63.181 107.625,45.227 95.862,45.227 111.709,73.816 111.709,89.729 122.63,89.729 
			122.63,73.938 138.532,45.227 127.498,45.227 		"/>
		<polygon fill="#0E2634" points="153.991,74.942 155.846,45.227 143.458,45.227 145.313,74.942 		"/>
		<path fill="#0E2634" d="M154.168,79.184c-1.182-1.214-2.701-1.83-4.516-1.83c-1.814,0-3.333,0.616-4.515,1.83
			c-1.185,1.215-1.786,2.743-1.786,4.54c0,1.794,0.609,3.34,1.807,4.594c1.202,1.258,2.713,1.896,4.493,1.896
			c1.779,0,3.291-0.638,4.494-1.896c1.199-1.254,1.807-2.8,1.807-4.594C155.953,81.927,155.352,80.399,154.168,79.184z"/>
	</g>
</g>
<g>
	<path fill="#0E2634" d="M98.49,118.634h-2.034v2.667h2.034c0.524,0,0.912-0.108,1.164-0.324c0.251-0.216,0.377-0.549,0.377-1.002
		C100.031,119.081,99.518,118.634,98.49,118.634z"/>
	<path fill="#0E2634" d="M104.904,107.027H51.096c-8.477,0-15.349,6.707-15.349,14.98s6.872,14.98,15.349,14.98h53.807
		c8.477,0,15.349-6.707,15.349-14.98S113.381,107.027,104.904,107.027z M57.495,124.868c-0.442,0.838-1.071,1.485-1.889,1.942
		c-0.816,0.457-1.774,0.686-2.874,0.686c-1.109,0-2.073-0.229-2.89-0.686c-0.817-0.457-1.446-1.104-1.888-1.942
		c-0.442-0.837-0.663-1.821-0.663-2.951s0.221-2.114,0.663-2.951c0.441-0.838,1.07-1.482,1.888-1.935
		c0.816-0.452,1.78-0.678,2.89-0.678s2.073,0.226,2.89,0.678c0.817,0.452,1.443,1.097,1.881,1.935
		c0.437,0.837,0.654,1.821,0.654,2.951S57.937,124.031,57.495,124.868z M68.684,118.542l-3.236,3.745v3.761
		c0,0.452-0.131,0.799-0.393,1.04c-0.263,0.241-0.599,0.362-1.01,0.362c-0.422,0-0.766-0.121-1.032-0.362
		c-0.268-0.241-0.401-0.588-0.401-1.04v-3.761l-3.205-3.745c-0.237-0.268-0.354-0.555-0.354-0.863c0-0.339,0.133-0.637,0.4-0.894
		c0.267-0.257,0.57-0.386,0.909-0.386c0.359,0,0.673,0.154,0.94,0.463l2.728,3.236l2.729-3.236c0.267-0.309,0.58-0.463,0.939-0.463
		c0.339,0,0.645,0.131,0.917,0.393c0.272,0.263,0.408,0.563,0.408,0.902C69.022,117.992,68.91,118.274,68.684,118.542z
		 M73.146,127.019c-0.282,0.287-0.634,0.432-1.056,0.432c-0.432,0-0.788-0.145-1.071-0.432c-0.282-0.288-0.424-0.643-0.424-1.063
		s0.142-0.775,0.424-1.063c0.283-0.288,0.64-0.432,1.071-0.432c0.422,0,0.773,0.144,1.056,0.432
		c0.283,0.288,0.424,0.643,0.424,1.063S73.429,126.73,73.146,127.019z M73.724,118.156l-0.816,4.778
		c-0.031,0.267-0.121,0.473-0.27,0.616c-0.149,0.144-0.332,0.216-0.548,0.216s-0.398-0.072-0.547-0.216
		c-0.149-0.144-0.244-0.35-0.285-0.616l-0.802-4.794c-0.01-0.062-0.015-0.144-0.015-0.246c0-0.463,0.156-0.824,0.47-1.087
		c0.313-0.262,0.706-0.393,1.179-0.393c0.483,0,0.879,0.134,1.188,0.4c0.308,0.268,0.462,0.632,0.462,1.095
		C73.739,118.013,73.734,118.095,73.724,118.156z M91.255,127.049c-0.272,0.237-0.584,0.354-0.933,0.354
		c-0.236,0-0.452-0.062-0.647-0.185s-0.35-0.309-0.462-0.555l-0.694-1.557h-4.993l-0.709,1.557c-0.113,0.246-0.27,0.432-0.47,0.555
		s-0.419,0.185-0.655,0.185c-0.35,0-0.665-0.117-0.948-0.354c-0.282-0.236-0.424-0.523-0.424-0.862c0-0.186,0.047-0.375,0.139-0.57
		l4.069-8.354c0.133-0.277,0.331-0.49,0.593-0.64c0.263-0.149,0.553-0.224,0.871-0.224c0.309,0,0.596,0.074,0.863,0.224
		c0.267,0.149,0.468,0.362,0.601,0.64l4.069,8.354c0.093,0.195,0.139,0.385,0.139,0.57
		C91.663,126.525,91.526,126.812,91.255,127.049z M101.673,122.503c-0.673,0.616-1.605,0.925-2.797,0.925h-2.42v2.62
		c0,0.431-0.129,0.772-0.386,1.024s-0.606,0.378-1.048,0.378c-0.432,0-0.773-0.126-1.024-0.378
		c-0.252-0.252-0.378-0.594-0.378-1.024v-8.246c0-0.421,0.113-0.745,0.339-0.971c0.227-0.226,0.55-0.339,0.972-0.339h3.945
		c1.202,0,2.137,0.306,2.805,0.917s1.002,1.462,1.002,2.551C102.683,121.038,102.346,121.886,101.673,122.503z M107.66,126.048
		c0,0.431-0.129,0.772-0.386,1.024s-0.606,0.378-1.048,0.378c-0.432,0-0.773-0.126-1.024-0.378
		c-0.252-0.252-0.378-0.594-0.378-1.024v-8.246c0-0.421,0.126-0.758,0.378-1.01c0.251-0.251,0.593-0.377,1.024-0.377
		c0.441,0,0.791,0.126,1.048,0.377c0.257,0.252,0.386,0.589,0.386,1.01V126.048z"/>
	<polygon fill="#0E2634" points="84.481,122.98 87.563,122.98 86.022,119.544 	"/>
	<path fill="#0E2634" d="M52.732,118.526c-0.822,0-1.464,0.285-1.927,0.855c-0.462,0.57-0.693,1.415-0.693,2.535
		s0.231,1.968,0.693,2.543c0.463,0.575,1.104,0.863,1.927,0.863s1.464-0.29,1.927-0.871c0.462-0.58,0.693-1.426,0.693-2.535
		s-0.234-1.952-0.701-2.527C54.184,118.814,53.544,118.526,52.732,118.526z"/>
</g>
</svg>
