<svg width="141" height="38" viewBox="0 0 141 38" fill="none" xmlns="http://www.w3.org/2000/svg">
<path d="M24.8066 0L9.47081 6.16022C3.95279 8.38839 0.584646 13.3035 0.0830078 18.6773C0.0830078 18.6773 0.0830078 18.6773 0.0830078 18.6117L5.45771 20.5122L11.0474 22.4783L16.8521 20.119C25.0216 16.9078 28.6047 7.86411 24.8066 0Z" fill="#618ACC"/>
<path d="M1.80288 26.9347C2.94948 29.2284 4.95603 31.1289 7.75088 32.1119L18.3569 35.9129C20.5785 30.7357 17.7836 24.9687 12.1223 22.9372L11.119 22.5439L1.58789 26.3449C1.65955 26.5415 1.73122 26.7381 1.80288 26.9347Z" fill="#B7CEEC"/>
<path d="M5.45744 20.5121L0.0827488 18.6116C0.0827488 18.6116 0.0827488 18.6116 0.0827488 18.6771C-0.0605764 19.4635 0.0110862 20.4465 0.0827488 21.364C0.154411 21.9538 0.226074 22.5436 0.369399 23.1334C0.584387 24.2475 1.01436 25.3616 1.44434 26.2791L10.9755 22.4781L5.45744 20.5121Z" fill="#2E55A5"/>
<path fill-rule="evenodd" clip-rule="evenodd" d="M36.6993 16.9354C38.6438 16.9354 40.4493 17.3307 41.9771 18.1214C43.5743 18.912 44.8243 20.098 45.7271 21.5475C46.6299 22.997 47.116 24.6442 47.116 26.489C47.1855 28.2679 46.6993 29.981 45.866 31.4305C45.0327 32.88 43.7827 34.066 42.2549 34.9225C40.7271 35.779 38.991 36.2402 37.0466 36.2402C35.1021 36.2402 33.366 35.8449 31.7688 35.0542C30.1716 34.2636 28.9216 33.0777 28.0188 31.6281C27.116 30.1786 26.6299 28.5315 26.6299 26.6866C26.6299 24.9077 27.0465 23.1947 27.8799 21.7451C28.7132 20.2956 29.9632 19.1097 31.491 18.2532C33.0188 17.3966 34.7549 16.9354 36.6993 16.9354ZM41.4215 29.3221C41.8382 28.5315 42.0465 27.6091 42.0465 26.5549C42.0465 25.5007 41.8382 24.5783 41.3521 23.7877C40.9354 22.997 40.241 22.4041 39.4771 21.9428C38.7132 21.4816 37.8104 21.284 36.8382 21.284C35.866 21.284 34.9632 21.5475 34.1993 22.0087C33.4354 22.4699 32.8104 23.1288 32.3937 23.9194C31.9771 24.7101 31.7687 25.6325 31.7687 26.6867C31.7687 27.7409 31.9771 28.6633 32.4632 29.4539C32.8798 30.2446 33.5743 30.8375 34.3382 31.2987C35.1021 31.76 36.0048 31.9576 36.9771 31.9576C37.9493 31.9576 38.8521 31.6941 39.616 31.2329C40.3799 30.7717 41.0049 30.1128 41.4215 29.3221Z" fill="#1E2B37"/>
<path d="M55.6578 24.5122L51.0051 17.067L45.5884 17.1329L53.0189 29.0584L53.0884 35.7788L58.1578 35.713L58.019 29.0584L65.1023 16.8694L60.1023 16.9353L55.6578 24.5122Z" fill="#1E2B37"/>
<path d="M72.3936 29.2561L73.088 16.7377L67.3936 16.8036L68.4352 29.322L72.3936 29.2561Z" fill="#1E2B37"/>
<path d="M72.5328 31.0352C71.9773 30.5081 71.2828 30.3104 70.4495 30.3104C69.6162 30.3104 68.9217 30.574 68.3662 31.1011C67.8106 31.6282 67.5328 32.287 67.6023 33.0118C67.6023 33.7365 67.8801 34.3954 68.4356 34.9225C68.9912 35.4496 69.6856 35.7131 70.519 35.7131C71.3523 35.7131 72.0467 35.4496 72.5328 34.8566C73.0884 34.3295 73.3662 33.6706 73.3662 32.88C73.3662 32.2211 73.0884 31.5623 72.5328 31.0352Z" fill="#1E2B37"/>
<rect x="83" y="15" width="58" height="23" rx="4" fill="#CFDAEC"/>
<path d="M87 33.24V19.24H91.3C93.7667 19.24 95.58 19.8667 96.74 21.12C97.9133 22.3733 98.5 24.0933 98.5 26.28C98.5 28.4267 97.9133 30.1267 96.74 31.38C95.58 32.62 93.7667 33.24 91.3 33.24H87ZM88.68 31.84H91.26C92.62 31.84 93.7 31.62 94.5 31.18C95.3133 30.7267 95.8933 30.0867 96.24 29.26C96.5867 28.42 96.76 27.4267 96.76 26.28C96.76 25.1067 96.5867 24.1 96.24 23.26C95.8933 22.42 95.3133 21.7733 94.5 21.32C93.7 20.8667 92.62 20.64 91.26 20.64H88.68V31.84Z" fill="#0D47A1"/>
<path d="M106.286 33.48C104.912 33.48 103.706 33.18 102.666 32.58C101.639 31.9667 100.832 31.1133 100.246 30.02C99.6724 28.9267 99.3858 27.6667 99.3858 26.24C99.3858 24.8133 99.6724 23.56 100.246 22.48C100.832 21.3867 101.639 20.5333 102.666 19.92C103.706 19.3067 104.912 19 106.286 19C107.672 19 108.879 19.3067 109.906 19.92C110.946 20.5333 111.752 21.3867 112.326 22.48C112.899 23.56 113.186 24.8133 113.186 26.24C113.186 27.6667 112.899 28.9267 112.326 30.02C111.752 31.1133 110.946 31.9667 109.906 32.58C108.879 33.18 107.672 33.48 106.286 33.48ZM106.286 32C107.312 32 108.212 31.7733 108.986 31.32C109.772 30.8533 110.379 30.1933 110.806 29.34C111.246 28.4733 111.466 27.44 111.466 26.24C111.466 25.04 111.246 24.0133 110.806 23.16C110.379 22.3067 109.772 21.6533 108.986 21.2C108.212 20.7333 107.312 20.5 106.286 20.5C105.259 20.5 104.352 20.7333 103.566 21.2C102.792 21.6533 102.186 22.3067 101.746 23.16C101.319 24.0133 101.106 25.04 101.106 26.24C101.106 27.44 101.319 28.4733 101.746 29.34C102.186 30.1933 102.792 30.8533 103.566 31.32C104.352 31.7733 105.259 32 106.286 32Z" fill="#0D47A1"/>
<path d="M120.749 33.48C119.376 33.48 118.189 33.18 117.189 32.58C116.203 31.9667 115.436 31.12 114.889 30.04C114.343 28.9467 114.069 27.68 114.069 26.24C114.069 24.8133 114.343 23.56 114.889 22.48C115.436 21.3867 116.203 20.5333 117.189 19.92C118.189 19.3067 119.376 19 120.749 19C122.349 19 123.649 19.3867 124.649 20.16C125.663 20.92 126.309 21.9867 126.589 23.36H124.729C124.516 22.4933 124.076 21.8 123.409 21.28C122.756 20.7467 121.869 20.48 120.749 20.48C119.749 20.48 118.876 20.7133 118.129 21.18C117.383 21.6333 116.803 22.2933 116.389 23.16C115.989 24.0133 115.789 25.04 115.789 26.24C115.789 27.44 115.989 28.4733 116.389 29.34C116.803 30.1933 117.383 30.8533 118.129 31.32C118.876 31.7733 119.749 32 120.749 32C121.869 32 122.756 31.7467 123.409 31.24C124.076 30.72 124.516 30.0333 124.729 29.18H126.589C126.309 30.5267 125.663 31.58 124.649 32.34C123.649 33.1 122.349 33.48 120.749 33.48Z" fill="#0D47A1"/>
<path d="M132.464 33.48C131.437 33.48 130.544 33.2933 129.784 32.92C129.024 32.5467 128.437 32.0267 128.024 31.36C127.611 30.6933 127.404 29.92 127.404 29.04H129.164C129.164 29.5867 129.291 30.0933 129.544 30.56C129.797 31.0133 130.164 31.38 130.644 31.66C131.137 31.9267 131.744 32.06 132.464 32.06C133.411 32.06 134.144 31.8333 134.664 31.38C135.184 30.9267 135.444 30.36 135.444 29.68C135.444 29.12 135.324 28.6733 135.084 28.34C134.844 27.9933 134.517 27.7133 134.104 27.5C133.704 27.2867 133.237 27.1 132.704 26.94C132.184 26.78 131.637 26.6 131.064 26.4C129.984 26.0267 129.184 25.5667 128.664 25.02C128.144 24.46 127.884 23.7333 127.884 22.84C127.871 22.0933 128.044 21.4333 128.404 20.86C128.764 20.2733 129.271 19.82 129.924 19.5C130.591 19.1667 131.377 19 132.284 19C133.177 19 133.951 19.1667 134.604 19.5C135.271 19.8333 135.784 20.2933 136.144 20.88C136.517 21.4667 136.711 22.1333 136.724 22.88H134.964C134.964 22.4933 134.864 22.1133 134.664 21.74C134.464 21.3533 134.157 21.04 133.744 20.8C133.344 20.56 132.837 20.44 132.224 20.44C131.464 20.4267 130.837 20.62 130.344 21.02C129.864 21.42 129.624 21.9733 129.624 22.68C129.624 23.28 129.791 23.74 130.124 24.06C130.471 24.38 130.951 24.6467 131.564 24.86C132.177 25.06 132.884 25.2933 133.684 25.56C134.351 25.8 134.951 26.08 135.484 26.4C136.017 26.72 136.431 27.1333 136.724 27.64C137.031 28.1467 137.184 28.7933 137.184 29.58C137.184 30.2467 137.011 30.88 136.664 31.48C136.317 32.0667 135.791 32.5467 135.084 32.92C134.391 33.2933 133.517 33.48 132.464 33.48Z" fill="#0D47A1"/>
</svg>
