<svg width="24" height="24" viewBox="0 0 24 24" fill="none" xmlns="http://www.w3.org/2000/svg">
<path fill-rule="evenodd" clip-rule="evenodd" d="M20.8813 19.8589L16.5537 15.5313C17.9234 14.0944 18.7644 12.149 18.7644 10.0072C18.7644 5.58494 15.1794 2 10.7572 2C6.33494 2 2.75 5.58494 2.75 10.0072C2.75 14.4294 6.33494 18.0144 10.7572 18.0144C12.1257 18.0144 13.414 17.6711 14.5407 17.0659L19.1075 21.6326C19.5973 22.1225 20.3915 22.1225 20.8813 21.6326C21.3711 21.1428 21.3711 20.3487 20.8813 19.8589ZM16.338 10.0072C16.338 13.0894 13.8394 15.588 10.7572 15.588C7.67502 15.588 5.17642 13.0894 5.17642 10.0072C5.17642 6.92502 7.67502 4.42642 10.7572 4.42642C13.8394 4.42642 16.338 6.92502 16.338 10.0072Z" fill="#1E2B37"/>
</svg>
